<svg width="21" height="28" viewBox="0 0 21 28" fill="none" xmlns="http://www.w3.org/2000/svg">
<path fill-rule="evenodd" clip-rule="evenodd" d="M9.91908 6.77228V12.9659H11.4743V16.546H15.3231V12.9659H17.9942V20.1261L13.7933 27.9999L8.9971 27.9275L4.20091 27.9999L0 20.1261V12.9659H2.65896V16.546H6.51991V12.9659H8.23474V0.842168C8.23474 0.377051 8.61179 0 9.07691 0C9.4124 0 9.70208 0.196177 9.83748 0.480076C10.2631 0.64329 10.6918 1.07436 11.135 1.52005C11.6616 2.04953 12.2087 2.59963 12.7954 2.74576C13.3879 2.89332 13.8272 2.73555 14.3221 2.55781C14.8412 2.37134 15.4216 2.16289 16.3043 2.26196C16.9662 2.33984 17.3171 2.77208 17.7095 3.25542C18.2312 3.89804 18.8263 4.63098 20.3231 4.74143L20.3136 4.7481C19.3553 5.42484 18.0459 6.34946 16.0129 6.16863C15.3771 6.11377 14.9291 5.90879 14.4996 5.71225C13.8875 5.43216 13.3129 5.16923 12.2855 5.38246C11.1734 5.60556 10.6115 6.13203 10.1842 6.53238C10.0909 6.61986 10.0039 6.70132 9.91908 6.77228Z" fill="#353535"/>
</svg>
